# xmcd
#
# Track frame offsets: 
#        150
#        29035
#        45620
#        67912
#        82522
#        99742
#        118578
#        130959
#        147388
#        163624
#        179750
#        202921
#        216562
#        222111
#        244595
#
# Disc length: 3511 seconds
#
# Revision: 0
# Processed by: cddbd v1.5.2PL0 Copyright (c) Steve Scherf et al.
# Submitted via: ExactAudioCopy v1.0b1
#
DISCID=dc0db50f
DTITLE=Hugh Laurie - Let Them Talk
DYEAR=2011
DGENRE=Blues
TTITLE0=St James Infirmary
TTITLE1=You Don't Know My Mind
TTITLE2=Six Cold Feet
TTITLE3=Buddy Bolden's Blues
TTITLE4=Battle Of Jericho
TTITLE5=After You've Gone
TTITLE6=Swanee River
TTITLE7=The Wale Has Swallowed Me
TTITLE8=John Henry
TTITLE9=Police Dog Blues
TTITLE10=Tipitina
TTITLE11=Winin' Boy Blues
TTITLE12=They're Red Hot
TTITLE13=Baby Please Make A Chance
TTITLE14=Let Them Talk
EXTD=
EXTT0=
EXTT1=
EXTT2=
EXTT3=
EXTT4=
EXTT5=
EXTT6=
EXTT7=
EXTT8=
EXTT9=
EXTT10=
EXTT11=
EXTT12=
EXTT13=
EXTT14=
PLAYORDER=
